<svg width="32" height="32" viewBox="0 0 32 32" fill="none" xmlns="http://www.w3.org/2000/svg">
<g id="beaches.svg" clip-path="url(#clip0_1_1176)">
<g id="Clip path group">
<mask id="mask0_1_1176" style="mask-type:luminance" maskUnits="userSpaceOnUse" x="0" y="0" width="32" height="32">
<g id="clip0_764_51979">
<path id="Vector" d="M32 0H0V32H32V0Z" fill="white"/>
</g>
</mask>
<g mask="url(#mask0_1_1176)">
<g id="Group">
<path id="Vector_2" d="M14.5774 23.1904C13.6266 23.1904 12.853 23.9639 12.853 24.9147V27.466C12.853 28.4168 13.6266 29.1904 14.5774 29.1904H17.6286C18.5795 29.1904 19.353 28.4168 19.353 27.466V24.9147C19.353 23.9639 18.5795 23.1904 17.6286 23.1904H14.5774ZM18.103 24.9147V27.466C18.103 27.7276 17.8902 27.9404 17.6286 27.9404H14.5774C14.3158 27.9404 14.103 27.7276 14.103 27.466V24.9147C14.103 24.6532 14.3158 24.4404 14.5774 24.4404H17.6286C17.8902 24.4404 18.103 24.6532 18.103 24.9147Z" fill="#1F2937"/>
<path id="Vector_3" d="M31.375 30.6898H30.8611C30.819 27.0338 30.4081 23.5458 29.6366 20.3132C28.9782 17.5546 28.0574 14.9729 26.8998 12.6397C26.5183 11.871 26.1089 11.1263 25.6806 10.4214C25.7587 10.1915 25.8017 9.94568 25.8017 9.68976C25.8017 9.2808 25.693 8.89696 25.5038 8.56472H31.375C31.6051 8.56472 31.8166 8.4384 31.9255 8.2356C32.0344 8.03296 32.0233 7.78681 31.8963 7.59494C30.741 5.84818 28.5517 4.7195 26.3189 4.7195C26.015 4.7195 25.7082 4.74287 25.4021 4.78581L28.9567 1.23118C29.1194 1.06843 29.1795 0.82956 29.1133 0.609246C29.047 0.388934 28.865 0.222746 28.6396 0.176808C26.5877 -0.241254 24.2415 0.508496 22.6624 2.0875C22.0885 2.6615 21.6099 3.36118 21.2628 4.12199C20.9154 3.36099 20.4361 2.66062 19.8629 2.08743C18.2839 0.508558 15.9379 -0.241379 13.8858 0.176808C13.6603 0.222746 13.4783 0.388934 13.4121 0.609246C13.3458 0.82956 13.4059 1.0685 13.5686 1.23118L17.1213 4.78387C16.8164 4.74162 16.5104 4.7195 16.2065 4.7195C13.9736 4.7195 11.7843 5.84818 10.629 7.59494C10.5021 7.78681 10.4909 8.03296 10.5998 8.2356C10.7087 8.43832 10.9202 8.56472 11.1503 8.56472H18.0666C17.9067 8.8792 17.8173 9.23104 17.8173 9.596C17.8173 10.8538 18.8407 11.8773 20.0986 11.8773C20.6349 11.8773 21.1282 11.6907 21.5181 11.3798C23.6514 14.4438 26.7211 20.5913 26.8436 30.6898H22.1045V28.3147C22.1045 27.9696 21.8246 27.6898 21.4795 27.6898C21.1344 27.6898 20.8545 27.9696 20.8545 28.3147V30.6898H11.3545V25.5022C11.3545 23.6413 9.84048 22.1273 7.9795 22.1273C6.1185 22.1273 4.6045 23.6413 4.6045 25.5022V30.6898H3.1045V20.3147H20.8545V22.6898C20.8545 23.0349 21.1344 23.3147 21.4795 23.3147C21.8246 23.3147 22.1045 23.0349 22.1045 22.6898V20.3147H23.25C23.4742 20.3147 23.6813 20.1946 23.7926 19.9998C23.9039 19.8052 23.9024 19.5658 23.7886 19.3725C21.2082 14.9924 16.9324 11.9324 12.0577 10.977C11.9782 10.9615 11.8967 10.9615 11.8173 10.977C6.9425 11.9324 2.66675 14.9924 0.0865 19.3725C-0.0273125 19.5658 -0.028875 19.8052 0.0823752 19.9998C0.193687 20.1946 0.40075 20.3147 0.625 20.3147H1.8545V30.6898H0.625C0.279813 30.6898 0 30.9696 0 31.3147C0 31.6598 0.279813 31.9398 0.625 31.9398H31.375C31.7202 31.9398 32 31.6598 32 31.3147C32 30.9696 31.7202 30.6898 31.375 30.6898ZM22.1137 19.0647H16.0798C15.695 17.1806 14.9966 14.561 13.8521 12.746C17.1779 13.8738 20.0855 16.0901 22.1137 19.0647ZM11.9375 12.3647C13.0663 13.3453 14.1062 15.7733 14.8034 19.0647H9.0716C9.7688 15.7733 10.8087 13.3453 11.9375 12.3647ZM10.0229 12.746C8.8784 14.561 8.18008 17.1806 7.79513 19.0647H1.76131C3.78944 16.0901 6.697 13.8739 10.0229 12.746ZM5.8545 30.6898V25.5022C5.8545 24.3305 6.80775 23.3773 7.9795 23.3773C9.15128 23.3773 10.1045 24.3305 10.1045 25.5022V30.6898H5.8545ZM20.0136 7.00074C20.0136 6.43212 20.4762 5.9695 21.0449 5.9695C21.6135 5.9695 22.0762 6.43212 22.0762 7.00074C22.0762 7.56937 21.6135 8.032 21.0449 8.032C20.4762 8.032 20.0136 7.56937 20.0136 7.00074ZM22.4892 9.68976C22.4892 9.12112 22.9518 8.65848 23.5204 8.65848C24.089 8.65848 24.5517 9.12112 24.5517 9.68976C24.5517 10.2584 24.089 10.721 23.5204 10.721C22.9518 10.721 22.4892 10.2584 22.4892 9.68976ZM26.3189 5.9695C27.6536 5.9695 29.0026 6.48294 29.9835 7.31468H23.304C23.3182 7.21194 23.3262 7.10731 23.3262 7.00074C23.3262 6.9555 23.3244 6.91062 23.3218 6.86599L23.4132 6.77462C24.2894 6.25962 25.3234 5.9695 26.3189 5.9695ZM23.5463 2.97137C24.4902 2.0275 25.807 1.43674 27.0888 1.33131L22.8331 5.58694C22.6655 5.37537 22.4616 5.19374 22.2302 5.0525C22.5186 4.26818 22.975 3.54268 23.5463 2.97137ZM18.979 2.97137C19.5054 3.49787 19.9352 4.15743 20.2251 4.8725C19.9391 4.98306 19.681 5.1495 19.4638 5.35862L15.4365 1.33131C16.7182 1.43674 18.0352 2.0275 18.979 2.97137ZM16.2065 5.9695C17.0876 5.9695 17.9918 6.19274 18.799 6.603C18.7762 6.73225 18.7636 6.865 18.7636 7.00074C18.7636 7.10731 18.7716 7.21199 18.7858 7.31468H12.5418C13.5227 6.48294 14.8718 5.9695 16.2065 5.9695ZM20.0986 10.6273C19.5299 10.6273 19.0673 10.1646 19.0673 9.596C19.0673 9.23952 19.2536 8.90968 19.5509 8.72248C19.9515 9.07056 20.4738 9.282 21.0449 9.282C21.057 9.282 21.0688 9.28128 21.0808 9.28104C21.113 9.38176 21.1298 9.48752 21.1298 9.59592C21.1298 10.1646 20.6672 10.6273 20.0986 10.6273ZM28.094 30.6898C28.0352 25.794 27.2839 21.2836 25.8587 17.2753C25.0754 15.0723 24.1904 13.313 23.382 11.9664C23.4278 11.9692 23.4739 11.971 23.5204 11.971C24.0293 11.971 24.4996 11.8034 24.8795 11.5207C25.193 12.0598 25.4947 12.6202 25.7801 13.1953C26.8958 15.4439 27.7842 17.9364 28.4208 20.6033C29.1696 23.7416 29.5698 27.1318 29.6116 30.6898H28.094Z" fill="#1F2937"/>
<path id="Vector_4" d="M21.4781 24.8779C21.3137 24.8779 21.1524 24.9442 21.0361 25.0604C20.92 25.1773 20.853 25.3385 20.853 25.5029C20.853 25.6673 20.9199 25.8279 21.0361 25.9448C21.1524 26.0611 21.3137 26.1279 21.4781 26.1279C21.643 26.1279 21.8037 26.0611 21.9199 25.9448C22.0361 25.8279 22.103 25.6673 22.103 25.5029C22.103 25.3385 22.0361 25.1773 21.9199 25.0604C21.8037 24.9442 21.643 24.8779 21.4781 24.8779Z" fill="#1F2937"/>
</g>
</g>
</g>
</g>
<defs>
<clipPath id="clip0_1_1176">
<rect width="32" height="32" fill="white"/>
</clipPath>
</defs>
</svg>
