<svg xmlns="http://www.w3.org/2000/svg" width="33" height="32" viewBox="0 0 33 32" fill="none">
<g id="city.svg">
<path id="Vector" d="M30.1807 28C29.783 28.0005 29.4017 28.1586 29.1205 28.4398C28.8393 28.721 28.6811 29.1023 28.6807 29.5V30H27.6807V28.9078C27.9723 28.8051 28.225 28.6146 28.404 28.3626C28.5831 28.1105 28.6797 27.8092 28.6807 27.5V26.5C28.6807 26.1022 28.5227 25.7206 28.2413 25.4394C27.96 25.158 27.5785 25 27.1807 25C26.7828 25 26.4013 25.158 26.12 25.4394C25.8387 25.7206 25.6807 26.1022 25.6807 26.5V27.5C25.6816 27.8092 25.7783 28.1105 25.9573 28.3626C26.1363 28.6146 26.3891 28.8051 26.6807 28.9078V30H26.4567L24.7158 27.2351C24.0591 26.1919 23.4439 25.1062 22.8759 24H23.1807C23.3133 24 23.4404 23.9474 23.5342 23.8535C23.628 23.7598 23.6807 23.6326 23.6807 23.5V21.5C23.6807 21.3674 23.628 21.2402 23.5342 21.1465C23.4404 21.0526 23.3133 21 23.1807 21H21.4873C21.0067 19.8522 20.5752 18.6783 20.1982 17.4964C20.3272 17.4924 20.4497 17.4383 20.5398 17.3458C20.6298 17.2531 20.6803 17.1291 20.6807 17V15C20.6807 14.8674 20.628 14.7402 20.5342 14.6465C20.4404 14.5526 20.3133 14.5 20.1807 14.5H19.3574C18.6111 11.387 18.2184 8.19976 18.1869 4.99875C18.3183 4.99729 18.4438 4.94411 18.5362 4.85075C18.6286 4.75739 18.6805 4.63137 18.6807 4.5V2.5C18.6807 2.36739 18.628 2.24022 18.5342 2.14645C18.4404 2.05268 18.3133 2 18.1807 2H17.1807V1H16.1807V2H15.1807C15.048 2 14.9209 2.05268 14.8271 2.14645C14.7333 2.24022 14.6807 2.36739 14.6807 2.5V4.5C14.6808 4.63137 14.7327 4.75739 14.8251 4.85075C14.9175 4.94411 15.0431 4.99729 15.1744 4.99875C15.1429 8.19976 14.7503 11.387 14.0039 14.5H13.1807C13.048 14.5 12.9209 14.5526 12.8271 14.6465C12.7333 14.7402 12.6807 14.8674 12.6807 15V17C12.6811 17.1291 12.7315 17.2531 12.8215 17.3458C12.9116 17.4383 13.0341 17.4924 13.1631 17.4964C12.7861 18.6783 12.3547 19.8522 11.874 21H10.1807C10.048 21 9.9209 21.0526 9.82714 21.1465C9.7333 21.2402 9.68066 21.3674 9.68066 21.5V23.5C9.68066 23.6326 9.7333 23.7598 9.82714 23.8535C9.9209 23.9474 10.048 24 10.1807 24H10.4855C9.91746 25.1062 9.30218 26.1919 8.64548 27.2351L6.90466 30H4.68066V28.9078C4.9723 28.8051 5.22499 28.6146 5.40404 28.3626C5.58309 28.1105 5.67972 27.8092 5.68066 27.5V26.5C5.68066 26.1022 5.52263 25.7206 5.24133 25.4394C4.96002 25.158 4.57849 25 4.18066 25C3.78284 25 3.40131 25.158 3.12 25.4394C2.8387 25.7206 2.68066 26.1022 2.68066 26.5V27.5C2.68161 27.8092 2.77825 28.1105 2.9573 28.3626C3.13634 28.6146 3.38903 28.8051 3.68066 28.9078V30H1.68066V31H31.6807V29.5C31.6802 29.1023 31.522 28.721 31.2408 28.4398C30.9596 28.1586 30.5783 28.0005 30.1807 28ZM26.6807 26.5C26.6807 26.3674 26.7333 26.2402 26.8271 26.1465C26.9209 26.0526 27.048 26 27.1807 26C27.3133 26 27.4404 26.0526 27.5342 26.1465C27.628 26.2402 27.6807 26.3674 27.6807 26.5V27.5C27.6807 27.6326 27.628 27.7598 27.5342 27.8535C27.4404 27.9474 27.3133 28 27.1807 28C27.048 28 26.9209 27.9474 26.8271 27.8535C26.7333 27.7598 26.6807 27.6326 26.6807 27.5V26.5ZM3.68066 26.5C3.68066 26.3674 3.73334 26.2402 3.82711 26.1465C3.92088 26.0526 4.04806 26 4.18066 26C4.31327 26 4.44045 26.0526 4.53422 26.1465C4.62798 26.2402 4.68066 26.3674 4.68066 26.5V27.5C4.68066 27.6326 4.62798 27.7598 4.53422 27.8535C4.44045 27.9474 4.31327 28 4.18066 28C4.04806 28 3.92088 27.9474 3.82711 27.8535C3.73334 27.7598 3.68066 27.6326 3.68066 27.5V26.5ZM16.5411 17.5H16.8203L17.9869 21H15.3744L16.5411 17.5ZM19.0411 21L17.8744 17.5H19.1465C19.5129 18.6782 19.9336 19.851 20.4019 21H19.0411ZM15.6807 3H17.6807V4H15.6807V3ZM16.1787 5H17.1826C17.2134 8.19904 17.5967 11.385 18.3254 14.5H15.0359C15.7647 11.385 16.1479 8.19904 16.1787 5ZM13.6807 15.5H19.6807V16.5H13.6807V15.5ZM14.2148 17.5H15.4869L14.3203 21H12.9595C13.4277 19.851 13.8484 18.6782 14.2148 17.5ZM10.6807 22H22.6807V23H10.6807V22ZM18.8341 24L19.5051 25.7894C18.6535 25.273 17.6766 25 16.6807 25C15.6847 25 14.7079 25.273 13.8563 25.7894L14.5272 24H18.8341ZM9.4917 27.7678C10.2543 26.5564 10.966 25.2903 11.6096 24H13.4591L12.2268 27.2858C11.6482 28.0821 11.2955 29.0198 11.2059 30H8.08642L9.4917 27.7678ZM12.2083 30C12.3312 28.8999 12.8554 27.8838 13.6805 27.1458C14.5055 26.4078 15.5737 25.9998 16.6807 25.9998C17.7876 25.9998 18.8558 26.4078 19.6808 27.1458C20.5059 27.8838 21.0301 28.8999 21.1531 30H12.2083ZM22.1557 30C22.0662 29.0198 21.7135 28.0821 21.1348 27.2858L19.9023 24H21.7517C22.3955 25.2903 23.1069 26.5562 23.8696 27.7678L25.2749 30H22.1557ZM29.6807 30V29.5C29.6807 29.3674 29.7333 29.2402 29.8271 29.1465C29.9209 29.0526 30.048 29 30.1807 29C30.3133 29 30.4404 29.0526 30.5342 29.1465C30.628 29.2402 30.6807 29.3674 30.6807 29.5V30H29.6807Z" fill="#06b6d4"/>
</g>
</svg>