<svg xmlns="http://www.w3.org/2000/svg" width="32" height="32" viewBox="0 0 32 32" fill="none">
<g id="festival.svg">
<path id="Vector" d="M10.1942 19.2002H5.5874C5.24222 19.2002 4.9624 19.48 4.9624 19.8252V20.4547C4.9624 20.7999 5.24222 21.0797 5.5874 21.0797C5.93259 21.0797 6.2124 20.7999 6.2124 20.4547V20.4502H9.56927V20.4547C9.56927 20.7999 9.84903 21.0797 10.1942 21.0797C10.5394 21.0797 10.8193 20.7999 10.8193 20.4547V19.8252C10.8193 19.48 10.5394 19.2002 10.1942 19.2002Z" fill="#06b6d4"/>
<path id="Vector_2" d="M25.9727 18.2812H20.8467C20.5015 18.2812 20.2217 18.561 20.2217 18.9062V19.6066C20.2217 19.9518 20.5015 20.2316 20.8467 20.2316C21.1919 20.2316 21.4717 19.9518 21.4717 19.6066V19.5312H25.3478V19.6066C25.3478 19.9518 25.6276 20.2316 25.9727 20.2316C26.3179 20.2316 26.5978 19.9518 26.5978 19.6066V18.9062C26.5978 18.561 26.3179 18.2812 25.9727 18.2812Z" fill="#06b6d4"/>
<path id="Vector_3" d="M26.3046 27.3594H26.2749C25.9297 27.3594 25.6499 27.6392 25.6499 27.9844C25.6499 28.3295 25.9297 28.6094 26.2749 28.6094H26.3046C26.6497 28.6094 26.9296 28.3295 26.9296 27.9844C26.9296 27.6392 26.6497 27.3594 26.3046 27.3594Z" fill="#06b6d4"/>
<path id="Vector_4" d="M31.375 27.3613H30.8025L29.3742 21.6231L30.6595 19.1997C30.7189 19.0877 30.7428 18.9602 30.7282 18.8343L29.4878 8.2132C29.4874 8.20944 29.4863 8.20576 29.4858 8.202C29.483 8.18216 29.4797 8.16272 29.4751 8.14352C29.4737 8.13728 29.472 8.13112 29.4703 8.12488C29.4654 8.10632 29.4596 8.088 29.453 8.07016C29.4518 8.0668 29.4511 8.06328 29.4498 8.06L27.7961 3.78994C27.7029 3.54925 27.4714 3.39062 27.2133 3.39062H19.6067C19.3487 3.39062 19.1171 3.54925 19.0239 3.78994L17.3702 8.06C17.3689 8.06328 17.3682 8.0668 17.367 8.07016C17.3605 8.088 17.3546 8.10632 17.3497 8.12488C17.3481 8.13112 17.3464 8.13728 17.3449 8.14352C17.3405 8.16264 17.337 8.18216 17.3342 8.202C17.3338 8.20576 17.3326 8.20944 17.3322 8.2132L16.092 18.8343C16.0773 18.9603 16.1012 19.0877 16.1606 19.1997L17.4459 21.6232L16.0175 27.3614H14.5838L13.3178 22.276L14.4617 20.1194C14.521 20.0074 14.545 19.8799 14.5303 19.754L13.4156 10.2087C13.4152 10.2049 13.4141 10.2013 13.4135 10.1974C13.411 10.1777 13.4074 10.1582 13.403 10.139C13.4015 10.1328 13.3998 10.1266 13.3981 10.1204C13.3932 10.1018 13.3874 10.0835 13.3808 10.0657C13.3795 10.0623 13.3789 10.0588 13.3776 10.0554L11.8914 6.21792C11.7982 5.97723 11.5667 5.81861 11.3086 5.81861H4.4726C4.21454 5.81861 3.98298 5.97723 3.88979 6.21792L2.40361 10.0554C2.4023 10.0588 2.40161 10.0622 2.40042 10.0657C2.39386 10.0835 2.38805 10.1018 2.38311 10.1204C2.38149 10.1266 2.3798 10.1328 2.3783 10.139C2.37386 10.1582 2.37036 10.1777 2.36767 10.1974C2.36718 10.2012 2.36605 10.2049 2.36561 10.2087L1.25099 19.754C1.2363 19.88 1.26024 20.0074 1.31962 20.1194L2.46336 22.2759L1.1975 27.3614H0.624996C0.279811 27.3614 0 27.6412 0 27.9863C0 28.3315 0.279811 28.6114 0.624996 28.6114H23.1881C23.5332 28.6114 23.813 28.3315 23.813 27.9863C23.813 27.6412 23.5332 27.3614 23.1881 27.3614H17.3058L18.3226 23.2762L19.0546 24.6564C19.163 24.8607 19.3754 24.9885 19.6067 24.9885H27.2134C27.4447 24.9885 27.6571 24.8607 27.7654 24.6564L28.4974 23.2762L29.5143 27.3613H28.1235C27.7783 27.3613 27.4986 27.6411 27.4986 27.9863C27.4986 28.3314 27.7783 28.6113 28.1235 28.6113H31.375C31.7202 28.6113 32 28.3314 32 27.9863C32 27.6411 31.7202 27.3613 31.375 27.3613ZM12.2386 10.9062L12.347 11.8339L10.0029 11.2906L9.9472 10.9062H12.2386ZM4.90078 7.0686H10.8805L11.8826 9.65616H3.89866L4.90078 7.0686ZM9.41424 15.9461L8.82432 17.2312H6.95702L6.36709 15.9461L7.09721 10.9062H8.68416L9.41424 15.9461ZM3.54261 10.9062H5.83409L5.7784 11.2906L3.4343 11.8339L3.54261 10.9062ZM3.28035 13.1527L5.5861 12.6183L5.10354 15.9494C5.08628 16.0686 5.10385 16.1903 5.1541 16.2998L5.98822 18.1169C6.09009 18.3389 6.31196 18.4811 6.55621 18.4811H9.22512C9.46936 18.4811 9.69128 18.3389 9.79312 18.1169L10.6273 16.2998C10.6775 16.1903 10.695 16.0686 10.6778 15.9494L10.1953 12.6183L12.501 13.1527L13.2662 19.7057L10.9327 24.1055H4.8486L2.51518 19.7057L3.28035 13.1527ZM2.48567 27.3614L3.34004 23.929L3.92048 25.0233C4.02885 25.2277 4.24129 25.3554 4.4726 25.3554H11.3087C11.5401 25.3554 11.7524 25.2277 11.8608 25.0233L12.4412 23.929L13.2955 27.3614H2.48567ZM28.4502 10.1046L25.6975 9.46664L25.617 8.91064H28.3107L28.4502 10.1046ZM20.035 4.64062H26.7851L27.9546 7.66067H18.8653L20.035 4.64062ZM25.178 14.5995L24.4941 16.0894H22.3258L21.6419 14.5995L22.4661 8.91064H24.3538L25.178 14.5995ZM18.5093 8.91064H21.203L21.1225 9.46664L18.3698 10.1046L18.5093 8.91064ZM26.8373 23.7386H19.9827L17.3562 18.786L18.2159 11.4234L20.9302 10.7943L20.3785 14.603C20.3613 14.7222 20.3787 14.8438 20.429 14.9533L21.3571 16.9752C21.459 17.1972 21.681 17.3394 21.9251 17.3394H24.8949C25.1391 17.3394 25.361 17.1972 25.4629 16.9752L26.391 14.9533C26.4413 14.8438 26.4589 14.7222 26.4416 14.603L25.8898 10.7943L28.6041 11.4234L29.4638 18.7859L26.8373 23.7386Z" fill="#06b6d4"/>
</g>
</svg>