<svg width="33" height="32" viewBox="0 0 33 32" fill="none" xmlns="http://www.w3.org/2000/svg">
<g id="hiking.svg" clip-path="url(#clip0_1_1206)">
<g id="Clip path group">
<mask id="mask0_1_1206" style="mask-type:luminance" maskUnits="userSpaceOnUse" x="0" y="0" width="33" height="32">
<g id="clip0_764_51992">
<path id="Vector" d="M32.3701 0H0.370117V32H32.3701V0Z" fill="white"/>
</g>
</mask>
<g mask="url(#mask0_1_1206)">
<g id="Group">
<path id="Vector_2" d="M5.70303 9.86572H4.63636C4.3418 9.86572 4.10303 10.1045 4.10303 10.3991C4.10303 10.6936 4.3418 10.9324 4.63636 10.9324H5.70303C5.99758 10.9324 6.23636 10.6936 6.23636 10.3991C6.23636 10.1045 5.99758 9.86572 5.70303 9.86572Z" fill="#1F2937"/>
<path id="Vector_3" d="M23.3027 6.13115C23.3027 7.89846 24.7355 9.33118 26.5027 9.33118C28.2701 9.33118 29.7027 7.89846 29.7027 6.13115C29.7027 4.36384 28.2701 2.93115 26.5027 2.93115C24.7362 2.93292 23.3045 4.36458 23.3027 6.13115ZM26.5027 3.99782C27.681 3.99782 28.6361 4.95294 28.6361 6.13115C28.6361 7.30936 27.681 8.26446 26.5027 8.26446C25.3246 8.26446 24.3694 7.30936 24.3694 6.13115C24.3694 4.95294 25.3246 3.99782 26.5027 3.99782Z" fill="#1F2937"/>
<path id="Vector_4" d="M27.0369 1.28376V0.798959C27.0369 0.504407 26.7981 0.265625 26.5036 0.265625C26.209 0.265625 25.9702 0.504407 25.9702 0.798959V1.28376C25.9702 1.57831 26.209 1.81709 26.5036 1.81709C26.7981 1.81709 27.0369 1.57831 27.0369 1.28376Z" fill="#1F2937"/>
<path id="Vector_5" d="M25.9702 10.9801V11.4649C25.9702 11.7595 26.209 11.9982 26.5036 11.9982C26.7981 11.9982 27.0369 11.7595 27.0369 11.4649V10.9801C27.0369 10.6856 26.7981 10.4468 26.5036 10.4468C26.209 10.4468 25.9702 10.6856 25.9702 10.9801Z" fill="#1F2937"/>
<path id="Vector_6" d="M31.8365 5.6001H31.3517C31.0572 5.6001 30.8184 5.83888 30.8184 6.13343C30.8184 6.42799 31.0572 6.66676 31.3517 6.66676H31.8365C32.1311 6.66676 32.3699 6.42799 32.3699 6.13343C32.3699 5.83888 32.1311 5.6001 31.8365 5.6001Z" fill="#1F2937"/>
<path id="Vector_7" d="M21.6554 6.66676C21.9498 6.66676 22.1886 6.42799 22.1886 6.13343C22.1886 5.83888 21.9498 5.6001 21.6554 5.6001H21.1706C20.876 5.6001 20.6372 5.83888 20.6372 6.13343C20.6372 6.42799 20.876 6.66676 21.1706 6.66676H21.6554Z" fill="#1F2937"/>
<path id="Vector_8" d="M30.6526 1.98428C30.4444 1.77607 30.1068 1.77607 29.8985 1.98428L29.5561 2.32668C29.4036 2.47921 29.358 2.70857 29.4405 2.90782C29.523 3.10709 29.7175 3.23703 29.9332 3.23708C30.1998 3.23708 30.2905 3.10055 30.6526 2.73841C30.8608 2.53015 30.8608 2.19254 30.6526 1.98428Z" fill="#1F2937"/>
<path id="Vector_9" d="M22.3559 10.2804C22.5641 10.4886 22.9017 10.4886 23.11 10.2804L23.4524 9.93803C23.6545 9.72875 23.6516 9.39611 23.4459 9.19035C23.2402 8.98467 22.9076 8.98179 22.6983 9.18387L22.3559 9.52627C22.1476 9.73451 22.1476 10.0721 22.3559 10.2804Z" fill="#1F2937"/>
<path id="Vector_10" d="M30.3101 9.18387C30.1008 8.98179 29.7682 8.98467 29.5625 9.19035C29.3567 9.39611 29.3538 9.72875 29.556 9.93803C29.8632 10.2452 29.9912 10.4367 30.2754 10.4367C30.4911 10.4367 30.6855 10.3067 30.7681 10.1074C30.8506 9.90819 30.805 9.67883 30.6525 9.52627L30.3101 9.18387Z" fill="#1F2937"/>
<path id="Vector_11" d="M23.1099 1.98418C22.9006 1.78206 22.568 1.78496 22.3623 1.99068C22.1565 2.19641 22.1536 2.52905 22.3558 2.73832C22.663 3.04552 22.791 3.23699 23.0752 3.23699C23.2909 3.23694 23.4853 3.107 23.5679 2.90774C23.6504 2.70847 23.6048 2.47911 23.4523 2.32658L23.1099 1.98418Z" fill="#1F2937"/>
<path id="Vector_12" d="M31.8368 29.5985C25.2549 29.5985 25.6683 29.6406 25.4699 29.5003L22.2901 27.2273C22.0192 27.0344 21.6947 26.931 21.3621 26.9318H20.0037C20.1349 26.5643 20.1019 26.6315 20.1019 24.0097L23.0037 18.9318H27.8709L31.3739 25.0651C31.4659 25.2354 31.6429 25.3425 31.8364 25.3449C32.03 25.3473 32.2096 25.2446 32.3059 25.0766C32.402 24.9087 32.3997 24.7018 32.2997 24.5361L26.3616 14.1409C26.171 13.8091 25.8174 13.6048 25.4348 13.6055C25.0522 13.6062 24.6992 13.8117 24.5099 14.1441L20.1035 21.8593V13.0059C20.626 12.473 20.7765 11.6778 20.4848 10.9906C20.1932 10.3035 19.5166 9.85944 18.7701 9.86512H14.7488L11.7941 6.91049C11.2835 6.40412 10.5911 6.12363 9.87196 6.13182C9.84852 6.06707 9.82116 6.00384 9.78988 5.94249C10.8773 4.63702 10.8565 2.73527 9.74068 1.45395C8.62484 0.172635 6.74399 -0.109354 5.30147 0.788398C3.85894 1.68615 3.2813 3.49818 3.93812 5.06516H1.97012C1.08646 5.06516 0.370117 5.7815 0.370117 6.66516V8.26512C0.371261 8.64456 0.574516 8.99456 0.903451 9.18352V15.7318C0.903451 16.6154 1.6198 17.3318 2.50345 17.3318V30.6651H0.903451C0.608899 30.6651 0.370117 30.9039 0.370117 31.1985C0.370117 31.493 0.608899 31.7318 0.903451 31.7318H7.87945C8.34678 31.7315 8.7906 31.527 9.09436 31.1718L11.6544 28.1851C11.757 28.0678 11.9049 27.9998 12.0608 27.9985C22.1595 27.9985 21.4645 27.951 21.6704 28.0966L24.8501 30.3697C25.1211 30.5626 25.4456 30.6659 25.7781 30.6651H31.8368C32.1313 30.6651 32.3701 30.4264 32.3701 30.1318C32.3701 29.8373 32.1313 29.5985 31.8368 29.5985ZM25.4368 14.6737L27.2613 17.8651H23.6139L25.4368 14.6737ZM18.1216 26.7681C18.0231 26.6705 17.9684 26.5371 17.9701 26.3985V13.5985C18.3259 13.6214 18.683 13.6108 19.0368 13.567V26.3985C19.0357 26.615 18.9039 26.8093 18.7032 26.8903C18.5024 26.9714 18.2727 26.923 18.1216 26.7681ZM19.3637 11.1947C19.5788 11.442 19.6235 11.7946 19.4767 12.0877C19.3299 12.3807 19.0207 12.5561 18.6939 12.5318H17.9701V10.9318C18.8325 10.9318 19.0731 10.8747 19.3637 11.1947ZM16.9035 10.9318V12.5318H14.3008C13.7589 12.5118 13.2544 12.251 12.9248 11.8203L13.9339 10.5617L13.9931 10.6209C14.1926 10.8191 14.4622 10.9309 14.7435 10.9318H16.9035ZM13.1749 9.80272L12.1664 11.0619L11.4144 10.3099C11.262 10.1571 11.0325 10.1113 10.8331 10.1937C10.6336 10.2762 10.5035 10.4706 10.5035 10.6865V15.7318H9.43676V9.18352C9.76572 8.99456 9.969 8.64456 9.97012 8.26512V7.20489C10.3708 7.22042 10.7512 7.38493 11.0368 7.66622L13.1749 9.80272ZM3.03678 11.9985C2.44768 11.9985 1.97012 11.521 1.97012 10.9318V9.33184H8.37012V10.9318C8.37012 11.521 7.89256 11.9985 7.30345 11.9985H3.03678ZM7.12745 1.33182C8.04292 1.33238 8.87788 1.85506 9.27836 2.67829C9.67892 3.50151 9.57476 4.48107 9.01012 5.20169C8.59836 5.01982 8.68316 5.06516 5.13918 5.06516C4.64517 4.33042 4.59653 3.38315 5.01272 2.60169C5.4289 1.82022 6.24208 1.33193 7.12745 1.33182ZM1.43678 6.66516C1.43678 6.37061 1.67557 6.13182 1.97012 6.13182H8.37012C8.66468 6.13182 8.90348 6.37061 8.90348 6.66516V8.26512H1.43678V6.66516ZM1.97012 15.7318V12.7686C2.29297 12.9606 2.66118 13.063 3.03678 13.0651V14.1318C3.03678 14.4264 3.27557 14.6651 3.57012 14.6651C3.86467 14.6651 4.10345 14.4264 4.10345 14.1318V13.0651H6.23678V14.1318C6.23678 14.4264 6.47557 14.6651 6.77012 14.6651C7.06467 14.6651 7.30345 14.4264 7.30345 14.1318V13.0651C7.67905 13.063 8.04727 12.9606 8.37012 12.7686C8.37012 15.9649 8.39996 15.8246 8.29918 15.9958C8.2045 16.162 8.02806 16.2648 7.83678 16.2651H2.50345C2.2089 16.2651 1.97012 16.0264 1.97012 15.7318ZM8.57436 17.1451C8.74108 17.051 8.89396 16.9344 9.02876 16.7985H10.5035C11.9755 16.8002 13.1684 17.9931 13.1701 19.4651V24.2651H10.4411L9.97012 20.4934C9.94948 19.9194 9.47788 19.4648 8.90348 19.4651H7.83678C7.25957 19.4609 6.78521 19.9196 6.77012 20.4966L6.27092 27.9985H3.57012V17.3318C8.25545 17.3318 8.11678 17.3851 8.57436 17.1451ZM3.57012 30.6651V29.0651H6.77012C7.35922 29.0651 7.83678 29.5427 7.83678 30.1318V30.6651H3.57012ZM8.86932 29.7963C8.737 28.9742 8.13713 28.305 7.33438 28.0838L7.83678 20.5318H8.90348C8.90356 20.5539 8.905 20.576 8.90772 20.5979C9.54348 25.6774 9.43676 24.287 9.43676 26.9318C9.43948 27.4861 9.8662 27.9459 10.4187 27.9899L8.86932 29.7963ZM10.5035 26.9318V25.3318H13.7035C14.2925 25.3318 14.7701 25.8094 14.7701 26.3985V26.9318H10.5035ZM14.2368 24.3409V19.4651C14.2321 17.8186 13.1484 16.3698 11.5701 15.9003V11.9739L12.4144 12.8182C12.916 13.3165 13.5938 13.5969 14.3008 13.5985H16.9035C16.9035 27.6038 16.8624 26.5409 17 26.9318H15.8368V26.3985C15.8332 25.4286 15.1758 24.5834 14.2368 24.3409Z" fill="#1F2937"/>
</g>
</g>
</g>
</g>
<defs>
<clipPath id="clip0_1_1206">
<rect width="32" height="32" fill="white" transform="translate(0.370117)"/>
</clipPath>
</defs>
</svg>
