<svg xmlns="http://www.w3.org/2000/svg" width="33" height="32" viewBox="0 0 33 32" fill="none">
<g id="massage.svg" clip-path="url(#clip0_1_1264)">
<g id="Group">
<path id="Vector" d="M8.2242 0.506247C6.3242 0.724997 4.69295 2.075 4.11795 3.90625C3.91795 4.5375 3.8742 5.7625 4.0242 6.38125C4.1617 6.93125 4.38045 7.48125 4.5992 7.83125C4.6992 7.99375 4.7367 8.1125 4.70545 8.15625C4.6742 8.2 4.51795 8.4 4.3492 8.6C3.9992 9.0375 3.6242 9.7375 3.4242 10.3437L3.2742 10.7812L3.24295 15.4625L3.2117 20.1437L2.8367 20.25C2.24295 20.4125 1.99295 20.5562 1.5367 21.0062C1.0492 21.4937 0.842948 21.8875 0.736698 22.55C0.486698 24.0562 1.5492 25.5312 3.05545 25.7687L3.48045 25.8375L3.50545 26.8L3.5242 27.7625L3.6992 27.9125C3.93045 28.1125 4.24295 28.1125 4.4742 27.9125L4.6492 27.7625L4.66795 26.7875L4.6867 25.8125H5.40545H6.11795V28.0937V30.375H5.4117H4.6992L4.6242 30.125C4.5742 29.9562 4.49295 29.8437 4.36795 29.7812C4.14295 29.6625 4.03045 29.6625 3.80545 29.7812C3.56795 29.9062 3.46795 30.2187 3.50545 30.7625C3.5367 31.1312 3.56795 31.225 3.70545 31.3687L3.86795 31.5312H5.3992H6.93045L7.09295 31.3687C7.2242 31.2312 7.2617 31.125 7.2867 30.8L7.31795 30.3937L11.9492 28.15C14.4929 26.9187 16.5867 25.9125 16.6117 25.9187C16.6304 25.925 18.7617 26.9562 21.3367 28.2062L26.0242 30.4875L26.0679 30.85C26.1054 31.1187 26.1617 31.2562 26.2742 31.375L26.4304 31.5312H27.9617H29.4929L29.6617 31.3562L29.8367 31.1875L29.8554 28.5125L29.8742 25.8375L30.2992 25.775C31.4617 25.5875 32.4054 24.65 32.6242 23.4687C32.9117 21.9312 31.7992 20.4187 30.2117 20.1875C29.9742 20.1562 29.0054 20.125 28.0742 20.125C27.1367 20.125 26.3679 20.1187 26.3679 20.1062C26.3679 20.1 26.4367 19.925 26.5242 19.7187C26.7054 19.275 26.7367 18.575 26.5867 18.0937C26.4054 17.475 26.1554 17.225 23.8429 15.3187C21.6617 13.5187 21.6429 13.5 21.5617 13.1937C21.5179 13.025 21.3867 12.6875 21.2742 12.4437C20.4179 10.6625 18.5679 9.58125 16.5992 9.70625C15.8367 9.75625 15.3992 9.875 14.6804 10.2312C13.6867 10.725 12.7679 11.7312 12.3617 12.7812C12.2617 13.0375 12.1742 13.1812 12.1554 13.125C12.0742 12.8937 11.1804 9.7125 11.1804 9.65C11.1804 9.6125 11.3367 9.475 11.5242 9.35625C12.1929 8.90625 12.8929 8.075 13.2242 7.325C13.6429 6.375 13.7492 5.14375 13.4992 4.15625C12.8992 1.8 10.6242 0.224997 8.2242 0.506247ZM9.70545 1.75C11.5742 2.225 12.7554 4.06875 12.4304 5.99375C12.1429 7.69375 10.5117 9.0625 8.7742 9.0625C7.43045 9.0625 6.0742 8.21875 5.46795 7.0125C4.94295 5.975 4.93045 4.8375 5.4242 3.78125C6.1992 2.13125 7.9492 1.3 9.70545 1.75ZM5.88045 9.25C6.2742 9.54375 6.94295 9.88125 7.4617 10.0437C7.7617 10.1312 8.01795 10.1562 8.7742 10.1437C9.29295 10.1375 9.79295 10.125 9.89295 10.1125L10.0804 10.0937L10.6304 12C10.9304 13.05 11.1929 13.9812 11.2117 14.0687C11.2492 14.225 11.1742 14.3 10.3992 14.9375C9.93045 15.325 9.5242 15.6187 9.49295 15.5875C9.46795 15.5562 9.24295 14.9187 8.9992 14.175C8.5117 12.7187 8.45545 12.625 8.05545 12.625C7.81795 12.625 7.49295 12.9187 7.49295 13.1375C7.49295 13.2187 7.73045 14 8.0242 14.875L8.55545 16.4625L8.31795 16.65C7.33045 17.4437 6.93045 18.3125 7.1367 19.25C7.1867 19.475 7.2742 19.7625 7.33045 19.8875L7.43045 20.125H5.8992H4.3617L4.38045 15.575C4.40545 10.5125 4.38045 10.8 4.8492 9.94375C5.0367 9.59375 5.46795 9 5.53045 9C5.54295 9 5.6992 9.1125 5.88045 9.25ZM18.0554 11.0375C19.2679 11.4187 20.2617 12.5187 20.5242 13.7812C20.9304 15.7312 19.7492 17.6437 17.8054 18.1562C17.3492 18.275 16.4492 18.275 15.9679 18.15C15.0367 17.9125 14.0679 17.1562 13.6304 16.3312C12.8554 14.8625 13.1117 13.1187 14.2679 11.9625C14.7554 11.4812 15.1054 11.25 15.6492 11.0562C16.4242 10.7875 17.2304 10.7812 18.0554 11.0375ZM12.0929 15.3562C12.1742 15.8312 12.3242 16.2937 12.5492 16.7187C12.6742 16.9562 12.7804 17.175 12.7929 17.2C12.8054 17.2312 12.5492 17.25 12.2242 17.25C11.5304 17.25 11.2742 17.325 11.1492 17.5687C11.0367 17.7812 11.0304 17.8812 11.1242 18.0875C11.2679 18.4 11.5117 18.45 12.7804 18.4312C13.8617 18.4125 13.9367 18.4187 14.1054 18.5437C14.5554 18.875 15.4804 19.2562 16.0429 19.3437L16.3054 19.3875V19.7562V20.125H12.7617C9.3242 20.125 9.2117 20.1187 8.95545 20C8.54295 19.7937 8.24295 19.2875 8.24295 18.7875C8.24295 18.2625 8.39295 18.0937 10.2429 16.5625C11.1867 15.775 11.9804 15.1312 12.0054 15.1312C12.0304 15.125 12.0679 15.2312 12.0929 15.3562ZM23.4742 16.5062C24.3929 17.2625 25.2054 17.9625 25.2804 18.05C25.6679 18.5437 25.6304 19.2125 25.1929 19.7C24.7929 20.1437 24.9492 20.125 21.0242 20.125H17.4929V19.7625V19.3937L17.9804 19.2937C18.4867 19.1812 19.0742 18.9312 19.5679 18.6187L19.8554 18.4312L21.1054 18.4187C22.2554 18.4062 22.3679 18.3937 22.4929 18.2812C22.6992 18.0937 22.7554 17.8937 22.6742 17.6437C22.5742 17.3375 22.3304 17.25 21.5867 17.25C21.2617 17.25 20.9929 17.2437 20.9929 17.2312C20.9929 17.225 21.1054 17 21.2367 16.7312C21.4492 16.3062 21.5867 15.8875 21.7117 15.2937C21.7304 15.2 21.7554 15.125 21.7679 15.125C21.7867 15.125 22.5492 15.7437 23.4742 16.5062ZM30.5867 21.4812C31.1679 21.7937 31.4867 22.3375 31.4929 23.0062C31.4929 23.7562 31.0304 24.375 30.2929 24.5937C30.0242 24.6687 29.5179 24.6875 27.3554 24.6875C25.6742 24.6875 24.6929 24.7125 24.6117 24.75C24.4304 24.85 24.2929 25.1687 24.3367 25.3812C24.4117 25.7312 24.6179 25.8125 25.3742 25.8125H26.0554V27.5C26.0554 28.425 26.0429 29.1875 26.0242 29.1875C25.9679 29.1875 19.2742 25.925 19.2179 25.8687C19.1804 25.8375 19.7054 25.8125 20.5492 25.8125C21.4242 25.8125 21.9867 25.7875 22.0679 25.7437C22.2617 25.6375 22.3804 25.3 22.2992 25.075C22.1554 24.6562 22.8867 24.6875 12.6617 24.6875C2.43045 24.6875 3.03045 24.7125 2.48045 24.2937C1.4367 23.4937 1.7742 21.7625 3.05545 21.3687C3.14295 21.3437 9.3117 21.325 16.7742 21.3312L30.3367 21.3437L30.5867 21.4812ZM13.9617 25.8687C13.9242 25.8937 12.6054 26.55 11.0242 27.3125C9.44295 28.0812 7.9617 28.8 7.73045 28.9125L7.30545 29.125V27.4687V25.8125H10.6617C12.5679 25.8125 13.9929 25.8375 13.9617 25.8687ZM28.6804 28.0937V30.375H27.9617H27.2429V28.0937V25.8125H27.9617H28.6804V28.0937Z" fill="#06b6d4"/>
</g>
</g>
<defs fill="#06b6d4">
<clipPath id="clip0_1_1264" fill="#06b6d4">
<rect width="32" height="32" fill="white" transform="translate(0.680664)"/>
</clipPath>
</defs>
</svg>