<svg width="33" height="32" viewBox="0 0 33 32" fill="none" xmlns="http://www.w3.org/2000/svg">
<g id="nightlife.svg">
<path id="Vector" d="M14.8903 17.0138C14.8902 16.7929 14.7738 16.5885 14.5839 16.4757C13.0236 15.5492 12.0544 13.847 12.0544 12.0337C12.0544 10.2209 13.0236 8.51934 14.5839 7.59284C14.7738 7.48003 14.8902 7.27559 14.8903 7.05465C14.8904 6.83377 14.7742 6.62921 14.5844 6.51621C13.5977 5.92903 12.4655 5.61865 11.31 5.61865C7.77277 5.61865 4.89502 8.49638 4.89502 12.0337C4.89502 15.5716 7.77277 18.4498 11.31 18.4498C12.4655 18.4498 13.5978 18.1395 14.5844 17.5523C14.7742 17.4393 14.8904 17.2347 14.8903 17.0138ZM11.3099 17.1975C8.4633 17.1975 6.1474 14.8809 6.1474 12.0337C6.1474 9.1871 8.4633 6.87115 11.3099 6.87115C11.9024 6.87115 12.4872 6.9724 13.0387 7.16796C11.6383 8.37566 10.802 10.1568 10.802 12.0337C10.802 13.9115 11.6382 15.6929 13.0387 16.9007C12.4872 17.0961 11.9024 17.1975 11.3099 17.1975Z" fill="#1F2937"/>
<path id="Vector_2" d="M17.2891 15.6976C17.2891 16.8369 18.2159 17.7638 19.3552 17.7638C20.4945 17.7638 21.4213 16.8369 21.4213 15.6976V11.8413C21.4213 11.2824 21.876 10.8277 22.435 10.8277C22.7807 10.8277 23.0612 10.5473 23.0612 10.2014C23.0612 9.85552 22.7808 9.5752 22.435 9.5752C21.1854 9.5752 20.1688 10.5918 20.1688 11.8412V13.7986C19.9191 13.6912 19.644 13.6314 19.3552 13.6314C18.2159 13.6314 17.2891 14.5583 17.2891 15.6976ZM19.3551 14.8839C19.8038 14.8839 20.1687 15.2489 20.1687 15.6976C20.1687 16.1463 19.8038 16.5113 19.3551 16.5113C18.9065 16.5113 18.5415 16.1462 18.5415 15.6976C18.5415 15.249 18.9065 14.8839 19.3551 14.8839Z" fill="#1F2937"/>
<path id="Vector_3" d="M31.0507 20.4162V12.7316C31.0507 12.0412 30.489 11.4795 29.7986 11.4795H26.1073C25.9288 8.47408 24.6653 5.67431 22.5109 3.53944C20.2074 1.25706 17.1527 0 13.9095 0C7.17109 0 1.68896 5.48213 1.68896 12.2206C1.68896 16.4327 3.8159 20.2948 7.37859 22.5516C7.48253 22.6174 7.59859 22.6488 7.71308 22.6488C7.92053 22.6488 8.12352 22.5458 8.24277 22.3576C8.42781 22.0654 8.34096 21.6786 8.04884 21.4934C4.85071 19.4676 2.9414 16.0011 2.9414 12.2205C2.9414 6.17262 7.86171 1.25238 13.9095 1.25238C16.8204 1.25238 19.562 2.38056 21.6293 4.42906C23.5485 6.33075 24.6793 8.82016 24.8529 11.4944C24.2493 11.5835 23.784 12.1035 23.784 12.7315V16.9984C22.9081 18.805 21.5565 20.3365 19.8658 21.432C18.0924 22.5812 16.0327 23.1887 13.9096 23.1887C13.62 23.1887 13.3273 23.1773 13.0398 23.1547C12.6946 23.1287 12.3936 23.3854 12.3666 23.7302C12.3396 24.075 12.5973 24.3764 12.9421 24.4034C13.2619 24.4284 13.5875 24.4411 13.9095 24.4411C16.2749 24.4411 18.5701 23.764 20.5469 22.483C21.8118 21.6634 22.9055 20.6238 23.784 19.4202V20.4162C23.784 22.2043 25.0858 23.6932 26.7911 23.9873V28.0768L24.4529 29.7201C24.0035 30.0359 23.8127 30.6002 23.9784 31.124C24.1441 31.6479 24.6246 31.9998 25.174 31.9998H29.6607C30.2101 31.9998 30.6906 31.6478 30.8563 31.124C31.0219 30.6002 30.8312 30.0359 30.3817 29.7202L28.0435 28.0768V23.9873C29.7489 23.6933 31.0507 22.2044 31.0507 20.4162ZM29.7983 16.2075H25.0361L25.036 12.7319L29.7983 12.7316V16.2075ZM25.0364 20.4162L25.0362 17.4599H29.7983V20.4162C29.7983 21.7244 28.7341 22.7887 27.4259 22.7887H27.4087C26.1006 22.7887 25.0364 21.7244 25.0364 20.4162ZM29.6624 30.7456L29.6617 30.7476H29.6606H25.1739H25.1729L25.1721 30.7456L25.173 30.745L27.4173 29.1677L29.6615 30.745L29.6624 30.7456Z" fill="#1F2937"/>
<path id="Vector_4" d="M10.2416 23.8492C10.5874 23.8492 10.8678 23.5688 10.8678 23.2229C10.8678 22.8771 10.5874 22.5967 10.2416 22.5967C9.89564 22.5967 9.61523 22.8771 9.61523 23.2229C9.61523 23.5688 9.89564 23.8492 10.2416 23.8492Z" fill="#1F2937"/>
<path id="Vector_5" d="M15.9622 11.7745C16.3081 11.7745 16.5885 11.4941 16.5885 11.1483C16.5885 10.8024 16.3081 10.522 15.9622 10.522C15.6163 10.522 15.3359 10.8024 15.3359 11.1483C15.3359 11.4941 15.6163 11.7745 15.9622 11.7745Z" fill="#1F2937"/>
<path id="Vector_6" d="M18.7044 9.60551C19.0502 9.60551 19.3306 9.32519 19.3306 8.97927C19.3306 8.63343 19.0502 8.35303 18.7044 8.35303C18.3584 8.35303 18.0781 8.63343 18.0781 8.97927C18.0781 9.32519 18.3584 9.60551 18.7044 9.60551Z" fill="#1F2937"/>
<path id="Vector_7" d="M16.9744 6.98395C17.3202 6.98395 17.6006 6.70357 17.6006 6.3577C17.6006 6.01183 17.3202 5.73145 16.9744 5.73145C16.6285 5.73145 16.3481 6.01183 16.3481 6.3577C16.3481 6.70357 16.6285 6.98395 16.9744 6.98395Z" fill="#1F2937"/>
</g>
</svg>
