<svg xmlns="http://www.w3.org/2000/svg" width="32" height="32" viewBox="0 0 32 32" fill="none">
<g id="online-shopping.svg">
<g id="Group">
<path id="Vector" d="M9.7125 2.0625C8.81875 2.225 8.05 2.6375 7.3375 3.34375C6.775 3.9 6.45 4.425 6.2 5.175C6.05 5.63125 6.0375 5.7375 6.0125 7.325L5.9875 9H4.15H2.30625L2.15625 9.15625C2.06875 9.2375 2 9.35625 2 9.41875C2 9.48125 1.775 14.0188 1.5 19.5C1.225 24.9812 1 29.5187 1 29.5812C1 29.6437 1.06875 29.7625 1.15625 29.8438L1.30625 30H16H30.6938L30.8438 29.8438C30.9312 29.7625 31 29.6375 31 29.575C31 29.5125 30.775 26.5375 30.5 22.9688C30.225 19.4 30 16.4437 30 16.3938C30 16.3438 29.9312 16.2375 29.8438 16.1562L29.6938 16H26H22.3125V15.825C22.3125 15.7312 22.2437 14.2937 22.1562 12.625C22.0688 10.9562 22 9.53125 22 9.45C22 9.36875 21.9312 9.2375 21.8438 9.15625L21.6938 9H19.85H18.0125L17.9875 7.35625C17.9563 5.50625 17.925 5.31875 17.4875 4.4375C17.15 3.76875 16.375 2.95 15.7312 2.59375C14.9625 2.16875 14.4625 2.04375 13.5312 2.0375C12.9313 2.0375 12.625 2.0625 12.3625 2.14375C12.0375 2.24375 11.9812 2.24375 11.6438 2.15C11.2063 2.03125 10.15 1.9875 9.7125 2.0625ZM10.2438 3.425C9.75625 3.94375 9.425 4.49375 9.20625 5.15625C9.04375 5.6375 9.0375 5.725 9.0125 7.325L8.9875 9H7.99375H7V7.60625C7 6.03125 7.05 5.65625 7.3375 5.03125C7.8875 3.85 9.1 3.0375 10.3688 3.00625L10.6375 3L10.2438 3.425ZM14.6438 3.20625C15.2125 3.4125 15.55 3.625 15.9625 4.0375C16.3688 4.44375 16.5813 4.775 16.8063 5.36875C16.9563 5.7625 16.9625 5.85 16.9875 7.3875L17.0125 9H16.0063H15V7.56875C15 6.05625 14.9375 5.53125 14.6938 4.86875C14.5125 4.38125 14.1188 3.79375 13.7 3.35L13.3438 2.9875L13.7937 3.025C14.0437 3.04375 14.425 3.13125 14.6438 3.20625ZM12.4 3.56875C13.0312 3.9625 13.5 4.5625 13.8063 5.36875C13.9563 5.7625 13.9625 5.85 13.9875 7.3875L14.0125 9H12H9.9875L10.0125 7.3875C10.0375 5.85 10.0437 5.7625 10.1938 5.36875C10.4125 4.8 10.6375 4.4375 10.9875 4.08125C11.3188 3.74375 11.8438 3.375 12 3.375C12.0563 3.375 12.2375 3.4625 12.4 3.56875ZM6 11.6187V13.2312L5.30625 13.6875C4.93125 13.9438 4.59375 14.1937 4.55625 14.2562C4.525 14.3187 4.5 15.3 4.5 16.5312V18.6937L4.65625 18.8438L4.80625 19H6.5H8.19375L8.34375 18.8438L8.5 18.6937V16.5312C8.5 15.3 8.475 14.3187 8.44375 14.2562C8.40625 14.1937 8.06875 13.9438 7.69375 13.6875L7 13.2312V11.6187V10H10.5H14V10.8438C14 11.6625 14.0063 11.7 14.1562 11.8438C14.3562 12.05 14.6438 12.05 14.8438 11.8438C14.9938 11.7 15 11.6625 15 10.8438V10H16C16.9875 10 17 10 17.025 10.1375C17.05 10.2563 17.3188 15.6687 17.3125 15.9187C17.3125 15.9812 16.9688 16 15.8125 16C14.325 16 14.3063 16 14.1625 16.1438C14.0563 16.25 14.0125 16.3812 13.9875 16.6875C13.9625 16.9125 13.7438 19.775 13.4938 23.05L13.0375 29H7.525H2.0125L2.0375 28.7625C2.05 28.6375 2.2625 24.425 2.50625 19.4062C2.75 14.3875 2.95625 10.2188 2.975 10.1375L3 10H4.5H6V11.6187ZM19.2 12.8125C19.2875 14.3438 19.3687 15.6875 19.3687 15.7937L19.375 16H18.8438C18.3125 16 18.3125 16 18.3125 15.8375C18.3125 15.6562 18.075 10.825 18.0438 10.325L18.0188 9.99375L18.525 10.0125L19.0312 10.0312L19.2 12.8125ZM21.025 10.1375C21.05 10.2563 21.3188 15.6687 21.3125 15.9187C21.3125 15.975 21.175 16 20.8438 16C20.4375 16 20.375 15.9875 20.375 15.8875C20.375 15.8313 20.3062 14.6125 20.2188 13.1875C20.1313 11.7625 20.0625 10.4625 20.0625 10.2937V10H20.5312C20.9625 10 21 10.0125 21.025 10.1375ZM7.0125 14.4437L7.5 14.7688V16.3812V18H6.5H5.5V16.3812V14.7688L5.9875 14.4437C6.25 14.2688 6.48125 14.125 6.49375 14.125C6.5125 14.125 6.74375 14.2688 7.0125 14.4437ZM25.4875 22.9187C25.7375 26.1812 25.9438 28.8813 25.9375 28.9187C25.9375 29.0375 14.0625 29.0375 14.0625 28.9187C14.0563 28.8813 14.2625 26.1812 14.5125 22.9187L14.9625 17H20H25.0375L25.4875 22.9187ZM27.0625 17.1062C27.0688 17.1687 27.275 19.2688 27.5312 21.7812L27.9875 26.3438L27.4312 27.1875C27.125 27.65 26.875 27.9875 26.875 27.9312C26.875 27.875 26.6938 25.4562 26.4688 22.5625C26.2437 19.6687 26.0625 17.2312 26.0625 17.15C26.0625 17.0062 26.0813 17 26.5625 17C26.9937 17 27.0625 17.0125 27.0625 17.1062ZM29.4438 22.275C29.6625 25.175 29.8313 27.5438 29.8062 27.5312C29.7875 27.5125 29.5938 27.2375 29.375 26.9062L28.9813 26.3062L28.525 21.7625C28.275 19.2625 28.0688 17.1687 28.0625 17.1062C28.0625 17.0125 28.125 17 28.55 17H29.0375L29.4438 22.275ZM29.05 28.2188L29.5625 29H28.5H27.4375L27.95 28.2188C28.2375 27.7938 28.4813 27.4437 28.5 27.4437C28.5188 27.4437 28.7625 27.7938 29.05 28.2188Z" fill="#06b6d4"/>
<path id="Vector_2" d="M17.1499 19.1562L16.9937 19.3125L17.0124 21.7062L17.0312 24.1L17.2624 24.575C17.5437 25.1438 17.9062 25.4938 18.4874 25.7687L18.9062 25.9688H19.9999H21.0937L21.5124 25.7687C22.0937 25.4938 22.4562 25.1438 22.7374 24.575L22.9687 24.1L22.9874 21.7062L23.0062 19.3125L22.8499 19.1562C22.6437 18.95 22.3562 18.95 22.1562 19.1562L21.9999 19.3063V21.5062C21.9999 23.05 21.9749 23.7812 21.9249 23.9625C21.8249 24.3062 21.3062 24.825 20.9624 24.925C20.6312 25.025 19.3687 25.025 19.0374 24.925C18.6937 24.825 18.1749 24.3062 18.0749 23.9625C18.0249 23.7812 17.9999 23.05 17.9999 21.5062V19.3063L17.8437 19.1562C17.6437 18.95 17.3562 18.95 17.1499 19.1562Z" fill="#06b6d4"/>
</g>
</g>
</svg>