<svg xmlns="http://www.w3.org/2000/svg" width="34" height="34" viewBox="0 0 34 34" fill="none">
<g id="circum:plane">
<path id="Vector" d="M28.9056 17.0964L28.9089 18.4964C28.9085 18.6681 28.8717 18.8377 28.801 18.9941C28.7303 19.1505 28.6273 19.2902 28.4986 19.4039C28.37 19.5176 28.2188 19.6027 28.0548 19.6537C27.8909 19.7046 27.7181 19.7203 27.5477 19.6996L20.1482 18.7928L20.1586 23.2501L21.3601 23.9313C21.5992 24.068 21.8031 24.2585 21.9557 24.4878C22.1083 24.717 22.2054 24.9786 22.2392 25.2519L22.3454 26.1784C22.3712 26.3765 22.3471 26.5778 22.2754 26.7643C22.2036 26.9507 22.0865 27.1163 21.9345 27.246C21.783 27.3762 21.6017 27.4671 21.4067 27.5105C21.2117 27.554 21.0089 27.5488 20.8164 27.4953L17.122 26.4719C17.0466 26.4507 16.9667 26.4509 16.8914 26.4724L13.2085 27.5143C13.0166 27.5679 12.8145 27.5734 12.62 27.5304C12.4256 27.4873 12.2447 27.3969 12.0934 27.2673C11.9422 27.1377 11.8252 26.9727 11.7529 26.7871C11.6806 26.6015 11.6551 26.401 11.6787 26.2032L11.7873 25.2763C11.8199 25.003 11.9156 24.7411 12.0669 24.5111C12.2181 24.2812 12.4208 24.0897 12.6588 23.9516L13.8572 23.2648L13.8469 18.8114L6.44772 19.754C6.27731 19.7757 6.10423 19.761 5.93992 19.7109C5.7756 19.6608 5.62378 19.5764 5.49448 19.4633C5.36519 19.3502 5.26135 19.2109 5.18983 19.0547C5.11832 18.8986 5.08075 18.729 5.0796 18.5572L5.07633 17.1519C5.07684 16.7938 5.18597 16.4443 5.38931 16.1496C5.59264 15.8549 5.88061 15.6288 6.21516 15.5012L13.8272 12.6248L13.8239 11.2301C13.8222 10.4424 13.9026 9.65665 14.0638 8.88558C14.1251 8.50368 14.2626 8.13798 14.4679 7.8102C14.6733 7.48243 14.9424 7.19924 15.2594 6.97746C15.5841 6.74647 15.9523 6.58377 16.3417 6.49922C16.7311 6.41466 17.1336 6.41 17.5249 6.48552C18.137 6.61714 18.6937 6.93389 19.1196 7.39278C19.5455 7.85167 19.8199 8.43048 19.9055 9.05066L19.938 9.26392C20.0611 10.0225 20.124 10.7896 20.126 11.5582L20.1285 12.6075L27.7538 15.4484C28.0903 15.5738 28.3808 15.7985 28.5865 16.0929C28.7923 16.3873 28.9036 16.7373 28.9056 17.0964ZM27.5752 18.3675L27.5723 17.0995C27.5715 17.0125 27.5443 16.9278 27.4944 16.8565C27.4445 16.7852 27.3742 16.7307 27.2927 16.7002L19.4125 13.7665C19.2336 13.6987 19.0795 13.5784 18.9703 13.4213C18.8612 13.2643 18.8022 13.0778 18.8011 12.8866L18.798 11.5652C18.7961 10.8655 18.7387 10.167 18.6265 9.4763L18.5927 9.26305C18.5481 8.91537 18.3992 8.58937 18.1655 8.32806C17.9319 8.06676 17.6245 7.88244 17.2839 7.79942C17.0684 7.7583 16.8467 7.76098 16.6322 7.80729C16.4177 7.8536 16.2146 7.9426 16.0352 8.06899C15.8591 8.19189 15.7096 8.34897 15.5954 8.53089C15.4813 8.71281 15.405 8.91584 15.371 9.12788C15.2257 9.81949 15.1528 10.5243 15.1532 11.2311L15.1571 12.8977C15.1568 13.0888 15.0988 13.2753 14.9907 13.4328C14.8826 13.5904 14.7294 13.7115 14.5512 13.7805L6.68739 16.7481C6.60604 16.779 6.53596 16.8338 6.48638 16.9053C6.4368 16.9769 6.41005 17.0617 6.40966 17.1487L6.41261 18.4167L14.1143 17.4362C14.2469 17.4181 14.3817 17.4287 14.5098 17.4673C14.6378 17.5058 14.7561 17.5715 14.8566 17.6598C14.957 17.748 15.0374 17.8569 15.0921 17.9789C15.1468 18.1009 15.1747 18.2333 15.1739 18.367L15.1858 23.4923C15.1868 23.6591 15.1431 23.8231 15.0593 23.9673C14.9754 24.1115 14.8545 24.2305 14.709 24.3121L13.3175 25.1154C13.2593 25.1485 13.2097 25.195 13.1728 25.2509C13.1359 25.3068 13.1126 25.3706 13.105 25.4372L13.012 26.1827L16.5297 25.1906C16.8398 25.1045 17.1673 25.1037 17.4777 25.1884L21.012 26.1641L20.9209 25.415C20.9129 25.3485 20.8894 25.2848 20.8522 25.229C20.815 25.1733 20.7652 25.1271 20.7069 25.0942L19.3063 24.2974C19.1619 24.2161 19.0417 24.0977 18.9582 23.9544C18.8747 23.8112 18.8308 23.6483 18.8311 23.4825L18.8192 18.3545C18.8176 18.2207 18.8449 18.0881 18.8992 17.9657C18.9534 17.8433 19.0334 17.734 19.1336 17.6452C19.2338 17.5565 19.3519 17.4903 19.48 17.4512C19.608 17.4122 19.743 17.4011 19.8757 17.4188L27.5752 18.3675Z" fill="#06b6d4"/>
</g>
</svg>