<svg width="33" height="32" viewBox="0 0 33 32" fill="none" xmlns="http://www.w3.org/2000/svg">
<g id="restaurant2.svg" clip-path="url(#clip0_1_1235)">
<g id="Group">
<path id="Vector" d="M7.99932 0.0873051C7.73682 0.231054 7.68682 0.418554 7.68057 1.16855V1.86856L4.88682 1.8873C2.19307 1.90605 2.07432 1.9123 1.79932 2.0373C1.38682 2.23105 1.08682 2.52481 0.886816 2.9248L0.711816 3.28105V8.46855V13.6561L0.855566 14.0623C1.13057 14.8686 1.63682 15.5436 2.27432 15.9686L2.61807 16.1936V23.4748V30.7498H1.89932C1.39307 30.7498 1.12432 30.7748 0.999316 30.8373C0.586816 31.0561 0.586816 31.6936 0.999316 31.9123C1.26182 32.0436 32.0993 32.0436 32.3618 31.9123C32.6556 31.7561 32.7556 31.3936 32.5931 31.0686C32.4556 30.8061 32.2493 30.7498 31.4618 30.7498H30.7431V23.4748V16.1936L31.0868 15.9623C31.8306 15.4748 32.4743 14.4998 32.6118 13.6436C32.6618 13.3436 32.6806 11.7623 32.6681 8.2498L32.6493 3.28105L32.4743 2.9248C32.2743 2.52481 31.9743 2.23105 31.5618 2.0373C31.2868 1.9123 31.1681 1.90605 28.4806 1.8873L25.6806 1.86856V1.1873C25.6806 0.431055 25.6181 0.224804 25.3618 0.0873051C25.1306 -0.0314445 19.4681 -0.0439453 19.2118 0.0748043C18.9056 0.212305 18.7868 0.606054 18.9556 0.931055C19.1181 1.24356 19.1868 1.2498 21.8993 1.2498H24.4306V3.3123V5.3748H16.6806H8.93057V3.3123V1.2498H11.4618C14.1743 1.2498 14.2431 1.24356 14.4056 0.931055C14.5743 0.606054 14.4556 0.212305 14.1493 0.0748043C13.9056 -0.0376968 8.20557 -0.0251961 7.99932 0.0873051ZM7.68057 4.6248C7.68057 6.2623 7.70557 6.40605 8.02432 6.5498C8.26182 6.65605 25.0993 6.65605 25.3368 6.5498C25.6556 6.40605 25.6806 6.2623 25.6806 4.6248V3.1248H28.3056C30.1993 3.1248 30.9681 3.14355 31.0868 3.1998C31.4181 3.3498 31.4306 3.4373 31.4306 5.7498V7.8748H16.6806H1.93057V5.73105C1.93682 3.44355 1.94307 3.38105 2.24932 3.21231C2.36807 3.14981 2.96807 3.13105 5.04307 3.1248H7.68057V4.6248ZM6.79307 11.3248L6.77432 13.5311L6.57432 13.9498C6.32432 14.4811 5.91182 14.8936 5.38057 15.1436C4.99932 15.3248 4.90557 15.3436 4.36807 15.3436C3.83682 15.3436 3.73057 15.3248 3.36807 15.1498C2.83057 14.8936 2.41182 14.4748 2.16182 13.9498L1.96182 13.5311L1.94307 11.3248L1.92432 9.1248H4.36807H6.81182L6.79307 11.3248ZM12.9181 11.3248L12.8993 13.5311L12.6993 13.9498C11.8118 15.8311 9.17432 15.8311 8.28682 13.9498L8.08682 13.5311L8.06807 11.3248L8.04932 9.1248H10.4931H12.9368L12.9181 11.3248ZM19.1681 11.3311L19.1493 13.5311L18.9493 13.9436C18.4493 14.9498 17.2556 15.5498 16.1931 15.3186C15.4181 15.1561 14.7556 14.6436 14.4181 13.9498L14.2118 13.5311L14.1931 11.3311L14.1743 9.1248H16.6806H19.1868L19.1681 11.3311ZM25.2931 11.3248L25.2743 13.5311L25.0743 13.9498C24.1868 15.8311 21.5493 15.8311 20.6618 13.9498L20.4618 13.5311L20.4431 11.3248L20.4243 9.1248H22.8681H25.3118L25.2931 11.3248ZM31.4306 11.2061C31.4306 13.5311 31.4056 13.6998 31.0118 14.2936C29.9743 15.8561 27.5993 15.6623 26.7868 13.9498L26.5868 13.5311L26.5681 11.3248L26.5493 9.1248H28.9931H31.4306V11.2061ZM14.9118 16.1748C15.3993 16.4311 16.1493 16.6248 16.6431 16.6248C17.7431 16.6186 18.8931 16.0873 19.5743 15.2686L19.7681 15.0248L20.2431 15.4998C20.7806 16.0436 21.2618 16.3186 21.9681 16.4998C22.5806 16.6561 23.1556 16.6561 23.7681 16.4998C24.4556 16.3248 24.9556 16.0373 25.4806 15.5186L25.9306 15.0686L26.3868 15.5186C26.6431 15.7748 27.0056 16.0561 27.2243 16.1748C27.7306 16.4436 28.4618 16.6248 29.0368 16.6248H29.4931V23.6873V30.7498H20.8368H12.1806V25.1873C12.1806 19.1373 12.1931 19.3623 11.8368 19.1998C11.6056 19.0936 5.69307 19.0936 5.46182 19.1998C5.10557 19.3623 5.11807 19.1373 5.11807 25.1873V30.7498H4.49307H3.86807V23.6873V16.6248H4.32432C4.89932 16.6248 5.63057 16.4436 6.13682 16.1748C6.35557 16.0561 6.71807 15.7748 6.98057 15.5186L7.43057 15.0686L7.88682 15.5186C8.84307 16.4686 10.1181 16.8248 11.3931 16.4998C12.0993 16.3186 12.5806 16.0436 13.1118 15.4998L13.5743 15.0311L14.0493 15.4998C14.3243 15.7748 14.6868 16.0561 14.9118 16.1748ZM10.9306 23.4998V26.6248H8.64932H6.36807V23.4998V20.3748H8.64932H10.9306V23.4998ZM10.9306 29.3123V30.7498H8.64932H6.36807V29.3123V27.8748H8.64932H10.9306V29.3123Z" fill="#1F2937"/>
<path id="Vector_2" d="M14.4369 19.2124C14.1182 19.3874 14.1244 19.3187 14.1182 23.4812C14.1182 26.3687 14.1369 27.4124 14.1932 27.5312C14.3557 27.8874 14.0432 27.8749 21.1807 27.8749C28.3182 27.8749 28.0057 27.8874 28.1682 27.5312C28.2744 27.2999 28.2744 19.6999 28.1682 19.4687C28.0057 19.1124 28.3182 19.1249 21.1682 19.1249C15.8244 19.1312 14.5619 19.1437 14.4369 19.2124ZM26.9932 23.4999V26.6249H25.6807H24.3682V25.9999V25.3749H24.7744C25.2494 25.3749 25.4682 25.2874 25.5932 25.0562C25.7619 24.7312 25.6432 24.3374 25.3369 24.1999C25.1119 24.0937 22.4369 24.0937 22.2119 24.1999C22.0307 24.2812 21.8682 24.5437 21.8682 24.7499C21.8682 24.9562 22.0307 25.2187 22.2119 25.2999C22.2994 25.3437 22.5432 25.3749 22.7432 25.3749H23.1182V25.9999V26.6249H21.1807H19.2432V25.9999V25.3749H19.6494C20.1244 25.3749 20.3432 25.2874 20.4682 25.0562C20.6307 24.7312 20.5307 24.3687 20.2369 24.2124C20.0057 24.0937 17.2744 24.0812 17.0244 24.1999C16.8432 24.2812 16.6807 24.5437 16.6807 24.7499C16.6807 24.9562 16.8432 25.2187 17.0244 25.2999C17.1119 25.3437 17.3682 25.3749 17.5869 25.3749H17.9932V25.9999V26.6249H16.6807H15.3682V23.4999V20.3749H21.1807H26.9932V23.4999Z" fill="#1F2937"/>
<path id="Vector_3" d="M16.3744 0.0875C15.8306 0.3875 16.0619 1.25 16.6806 1.25C16.9994 1.25 17.3056 0.94375 17.3056 0.63125C17.3056 0.1625 16.7869 -0.14375 16.3744 0.0875Z" fill="#1F2937"/>
</g>
</g>
<defs>
<clipPath id="clip0_1_1235">
<rect width="32" height="32" fill="white" transform="translate(0.680664)"/>
</clipPath>
</defs>
</svg>
