<svg xmlns="http://www.w3.org/2000/svg" width="32" height="32" viewBox="0 0 32 32" fill="none">
<g id="beaches.svg" clip-path="url(#clip0_1_1194)">
<path id="Vector" d="M0 22.8047V5.64706C0 4.41851 0.428953 3.4309 1.28686 2.68424C2.14324 1.93757 3.30438 1.36533 4.77029 0.967529C6.23467 0.57098 7.93752 0.310588 9.87886 0.186353C11.8202 0.0621176 13.8606 0 16 0C18.2217 0 20.3002 0.0621176 22.2354 0.186353C24.1707 0.311843 25.8644 0.572235 27.3166 0.967529C28.7688 1.36533 29.9116 1.93757 30.7451 2.68424C31.5817 3.4309 32 4.41851 32 5.64706V22.8047C32 24.3181 31.36 25.6019 30.08 26.656C28.8015 27.7089 27.2434 28.2353 25.4057 28.2353L28.8343 31.0588V32H26.9006L22.3291 28.2353H9.67086L5.09943 32H3.16571V31.0588L6.59429 28.2353C4.75657 28.2353 3.19772 27.7082 1.91771 26.6541C0.639239 25.6025 0 24.32 0 22.8066V22.8047ZM16 1.88235C11.523 1.88235 8.26286 2.12706 6.21943 2.61647C4.17752 3.10463 2.94552 3.82494 2.52343 4.77741H29.5291C29.133 3.81114 27.9116 3.08706 25.8651 2.60518C23.8187 2.12329 20.5303 1.88235 16 1.88235ZM2.28571 15.0588H14.8571V6.65976H2.28571V15.0588ZM25.4057 16.9412H2.28571H29.7143H25.4057ZM17.1429 15.0588H29.7143V6.65976H17.1429V15.0588ZM8 23.7459C8.72686 23.7459 9.33333 23.5457 9.81943 23.1454C10.307 22.7438 10.5509 22.2444 10.5509 21.6471C10.5509 21.0485 10.307 20.549 9.81943 20.1487C9.33181 19.7471 8.72533 19.5464 8 19.5464C7.27314 19.5464 6.66667 19.7471 6.18057 20.1487C5.69295 20.5503 5.44914 21.0497 5.44914 21.6471C5.44914 22.2456 5.69295 22.7451 6.18057 23.1454C6.66819 23.547 7.27467 23.7478 8 23.7478V23.7459ZM24 23.7459C24.7269 23.7459 25.3333 23.5457 25.8194 23.1454C26.307 22.7438 26.5509 22.2444 26.5509 21.6471C26.5509 21.0485 26.307 20.549 25.8194 20.1487C25.3318 19.7471 24.7253 19.5464 24 19.5464C23.2731 19.5464 22.6667 19.7471 22.1806 20.1487C21.693 20.5503 21.4491 21.0497 21.4491 21.6471C21.4491 22.2456 21.693 22.7451 22.1806 23.1454C22.6682 23.547 23.2747 23.7478 24 23.7478V23.7459ZM6.59429 26.3529H25.4057C26.6019 26.3529 27.6191 26.0078 28.4571 25.3176C29.2952 24.6275 29.7143 23.7898 29.7143 22.8047V16.9412H2.28571V22.8047C2.28571 23.7898 2.70476 24.6275 3.54286 25.3176C4.38095 26.0078 5.3981 26.3529 6.59429 26.3529ZM16 4.77741H29.5291H2.52343H16Z" fill="#06b6d4"/>
</g>
<defs fill="#000000">
<clipPath id="clip0_1_1194" fill="#000000">
<rect width="32" height="32" fill="white"/>
</clipPath>
</defs>
</svg>