<svg xmlns="http://www.w3.org/2000/svg" width="34" height="34" viewBox="0 0 34 34" fill="none">
    <path d="M28.9046 17.0964L28.9079 18.4964C28.9075 18.6681 28.8708 18.8377 28.8 18.9941C28.7293 19.1505 28.6263 19.2902 28.4977 19.4039C28.369 19.5176 28.2178 19.6027 28.0539 19.6537C27.8899 19.7046 27.7171 19.7203 27.5467 19.6996L20.1472 18.7928L20.1576 23.2501L21.3592 23.9313C21.5982 24.068 21.8022 24.2585 21.9548 24.4878C22.1073 24.717 22.2044 24.9786 22.2382 25.2519L22.3444 26.1784C22.3702 26.3765 22.3461 26.5778 22.2744 26.7643C22.2026 26.9507 22.0855 27.1163 21.9336 27.246C21.782 27.3762 21.6007 27.4671 21.4057 27.5105C21.2107 27.554 21.008 27.5488 20.8155 27.4953L17.1211 26.4719C17.0456 26.4507 16.9658 26.4509 16.8904 26.4724L13.2075 27.5143C13.0156 27.5679 12.8135 27.5734 12.6191 27.5304C12.4246 27.4873 12.2437 27.3969 12.0925 27.2673C11.9412 27.1377 11.8243 26.9727 11.7519 26.7871C11.6796 26.6015 11.6541 26.401 11.6778 26.2032L11.7863 25.2763C11.8189 25.003 11.9146 24.7411 12.0659 24.5111C12.2172 24.2812 12.4198 24.0897 12.6579 23.9516L13.8563 23.2648L13.8459 18.8114L6.44674 19.754C6.27633 19.7757 6.10326 19.761 5.93894 19.7109C5.77462 19.6608 5.6228 19.5764 5.49351 19.4633C5.36421 19.3502 5.26038 19.2109 5.18886 19.0547C5.11734 18.8986 5.07977 18.729 5.07862 18.5572L5.07535 17.1519C5.07586 16.7938 5.185 16.4443 5.38833 16.1496C5.59166 15.8549 5.87963 15.6288 6.21418 15.5012L13.8262 12.6248L13.8229 11.2301C13.8212 10.4424 13.9016 9.65665 14.0628 8.88558C14.1242 8.50368 14.2616 8.13798 14.467 7.8102C14.6723 7.48243 14.9415 7.19924 15.2584 6.97746C15.5831 6.74647 15.9513 6.58377 16.3407 6.49922C16.7301 6.41466 17.1326 6.41 17.5239 6.48552C18.136 6.61714 18.6927 6.93389 19.1186 7.39278C19.5445 7.85167 19.8189 8.43048 19.9045 9.05066L19.937 9.26392C20.0601 10.0225 20.123 10.7896 20.125 11.5582L20.1275 12.6075L27.7528 15.4484C28.0893 15.5738 28.3798 15.7985 28.5855 16.0929C28.7913 16.3873 28.9026 16.7373 28.9046 17.0964ZM27.5742 18.3675L27.5713 17.0995C27.5705 17.0125 27.5434 16.9278 27.4934 16.8565C27.4435 16.7852 27.3732 16.7307 27.2917 16.7002L19.4115 13.7665C19.2326 13.6987 19.0785 13.5784 18.9694 13.4213C18.8602 13.2643 18.8012 13.0778 18.8001 12.8866L18.7971 11.5652C18.7951 10.8655 18.7377 10.167 18.6255 9.4763L18.5917 9.26305C18.5471 8.91537 18.3982 8.58937 18.1645 8.32806C17.9309 8.06676 17.6235 7.88244 17.283 7.79942C17.0674 7.7583 16.8457 7.76098 16.6312 7.80729C16.4167 7.8536 16.2137 7.9426 16.0342 8.06899C15.8581 8.19189 15.7086 8.34897 15.5945 8.53089C15.4804 8.71281 15.404 8.91584 15.37 9.12788C15.2248 9.81949 15.1518 10.5243 15.1523 11.2311L15.1561 12.8977C15.1559 13.0888 15.0979 13.2753 14.9897 13.4328C14.8816 13.5904 14.7284 13.7115 14.5502 13.7805L6.68642 16.7481C6.60506 16.779 6.53498 16.8338 6.4854 16.9053C6.43583 16.9769 6.40908 17.0617 6.40868 17.1487L6.41163 18.4167L14.1134 17.4362C14.2459 17.4181 14.3807 17.4287 14.5088 17.4673C14.6368 17.5058 14.7551 17.5715 14.8556 17.6598C14.9561 17.748 15.0364 17.8569 15.0911 17.9789C15.1459 18.1009 15.1738 18.2333 15.1729 18.367L15.1848 23.4923C15.1858 23.6591 15.1421 23.8231 15.0583 23.9673C14.9744 24.1115 14.8535 24.2305 14.708 24.3121L13.3166 25.1154C13.2584 25.1485 13.2088 25.195 13.1718 25.2509C13.1349 25.3068 13.1117 25.3706 13.104 25.4372L13.0111 26.1827L16.5288 25.1906C16.8388 25.1045 17.1663 25.1037 17.4768 25.1884L21.011 26.1641L20.92 25.415C20.912 25.3485 20.8884 25.2848 20.8512 25.229C20.814 25.1733 20.7642 25.1271 20.7059 25.0942L19.3054 24.2974C19.1609 24.2161 19.0407 24.0977 18.9572 23.9544C18.8737 23.8112 18.8298 23.6483 18.8301 23.4825L18.8182 18.3545C18.8167 18.2207 18.844 18.0881 18.8982 17.9657C18.9525 17.8433 19.0324 17.734 19.1326 17.6452C19.2328 17.5565 19.351 17.4903 19.479 17.4512C19.607 17.4122 19.742 17.4011 19.8747 17.4188L27.5742 18.3675Z" fill="black"/>
</svg>