<svg xmlns="http://www.w3.org/2000/svg" width="32" height="32" viewBox="0 0 32 32" fill="none">
    <path d="M2.66699 26.6667C2.96989 27.0887 3.37095 27.4306 3.83556 27.6629C4.30016 27.8952 4.81433 28.0109 5.33366 28C5.85299 28.0109 6.36716 27.8952 6.83176 27.6629C7.29636 27.4306 7.69743 27.0887 8.00033 26.6667C8.30322 26.2447 8.70429 25.9028 9.16889 25.6705C9.63349 25.4382 10.1477 25.3225 10.667 25.3333C11.1863 25.3225 11.7005 25.4382 12.1651 25.6705C12.6297 25.9028 13.0308 26.2447 13.3337 26.6667C13.6366 27.0887 14.0376 27.4306 14.5022 27.6629C14.9668 27.8952 15.481 28.0109 16.0003 28C16.5197 28.0109 17.0338 27.8952 17.4984 27.6629C17.963 27.4306 18.3641 27.0887 18.667 26.6667C18.9699 26.2447 19.371 25.9028 19.8356 25.6705C20.3002 25.4382 20.8143 25.3225 21.3337 25.3333C21.853 25.3225 22.3672 25.4382 22.8318 25.6705C23.2964 25.9028 23.6974 26.2447 24.0003 26.6667C24.3032 27.0887 24.7043 27.4306 25.1689 27.6629C25.6335 27.8952 26.1477 28.0109 26.667 28C27.1863 28.0109 27.7005 27.8952 28.1651 27.6629C28.6297 27.4306 29.0308 27.0887 29.3337 26.6667M5.33366 24L4.00033 17.3333H28.0003L25.3337 22.6667M6.66699 17.3333V9.33333H17.3337L22.667 17.3333M9.33366 9.33333V4H8.00033" stroke="black" stroke-width="2" stroke-linecap="round" stroke-linejoin="round" />
</svg>